<?xml version="1.0" encoding="UTF-8"?>
<svg width="40" height="40" viewBox="0 0 40 40" xmlns="http://www.w3.org/2000/svg">
  <g transform="scale(0.1)" fill="#4A9EFF">
    <path d="M153 333 l-43 -15 0 -54 c0 -67 9 -86 55 -114 34 -21 37 -21 63 -5 48 31 62 56 62 117 l0 56 -47 16 c-26 9 -47 16 -47 15 -1 0 -20 -7 -43 -16z m118 -19 c5 -3 9 -28 9 -55 0 -42 -5 -55 -29 -80 -37 -37 -65 -37 -102 1 -27 26 -30 35 -27 82 3 46 6 53 28 60 26 7 104 3 121 -8z"/>
    <path d="M167 263 c-14 -13 -7 -81 10 -94 11 -9 14 -10 9 -2 -10 19 -16 74 -6 68 4 -3 11 1 14 7 5 11 7 11 12 0 3 -6 10 -10 14 -7 10 6 4 -49 -6 -68 -5 -8 -2 -7 9 2 22 18 23 86 1 95 -21 8 -49 8 -57 -1z"/>
    <path d="M188 208 c9 -9 15 -9 24 0 9 9 7 12 -12 12 -19 0 -21 -3 -12 -12z"/>
    <path d="M100 105 c0 -8 8 -15 18 -14 10 0 12 3 4 6 -6 2 -10 9 -6 14 3 5 0 9 -5 9 -6 0 -11 -7 -11 -15z"/>
    <path d="M141 108 c-1 -10 6 -18 14 -18 8 0 15 8 15 18 0 13 -2 14 -9 3 -7 -11 -9 -11 -14 0 -4 10 -6 9 -6 -3z"/>
    <path d="M180 105 c0 -8 7 -15 15 -15 8 0 15 7 15 15 0 8 -7 15 -15 15 -8 0 -15 -7 -15 -15z"/>
    <path d="M221 104 c0 -11 3 -14 6 -6 3 7 2 16 -1 19 -3 4 -6 -2 -5 -13z"/>
    <path d="M243 106 c2 -6 17 -11 33 -12 16 -1 23 0 16 3 -6 3 -10 8 -8 12 3 4 -6 7 -20 7 -13 0 -23 -5 -21 -10z"/>
    <path d="M111 64 c0 -11 3 -14 6 -6 3 7 2 16 -1 19 -3 4 -6 -2 -5 -13z"/>
    <path d="M140 65 c0 -8 4 -15 8 -15 5 0 9 7 9 15 0 8 -4 15 -9 15 -4 0 -8 -7 -8 -15z"/>
    <path d="M176 73 c-11 -11 -6 -23 9 -23 8 0 15 4 15 9 0 13 -16 22 -24 14z"/>
    <path d="M211 64 c0 -11 3 -14 6 -6 3 7 2 16 -1 19 -3 4 -6 -2 -5 -13z"/>
    <path d="M242 66 c7 -8 15 -12 17 -11 5 6 -10 25 -20 25 -5 0 -4 -6 3 -14z"/>
    <path d="M273 66 c5 -16 27 -19 27 -3 0 7 -7 14 -15 14 -9 0 -14 -5 -12 -11z"/>
  </g>
</svg>